<?xml version="1.0" standalone="no"?><svg xmlns="http://www.w3.org/2000/svg" viewBox="0 0 1440 320"><path fill="#ffcc5d" fill-opacity="1" d="M0,192L24,170.7C48,149,96,107,144,117.3C192,128,240,192,288,202.7C336,213,384,171,432,149.3C480,128,528,128,576,106.7C624,85,672,43,720,48C768,53,816,107,864,138.7C912,171,960,181,1008,165.3C1056,149,1104,107,1152,101.3C1200,96,1248,128,1296,144C1344,160,1392,160,1416,160L1440,160L1440,0L1416,0C1392,0,1344,0,1296,0C1248,0,1200,0,1152,0C1104,0,1056,0,1008,0C960,0,912,0,864,0C816,0,768,0,720,0C672,0,624,0,576,0C528,0,480,0,432,0C384,0,336,0,288,0C240,0,192,0,144,0C96,0,48,0,24,0L0,0Z"></path></svg>